<?xml version="1.0" encoding="UTF-8" standalone="no"?>
<!-- Created with Inkscape (http://www.inkscape.org/) -->

<svg
   width="185.55832mm"
   height="37.207031mm"
   viewBox="0 0 185.55832 37.207031"
   version="1.1"
   id="svg5"
   xml:space="preserve"
   inkscape:version="1.2.2 (732a01da63, 2022-12-09)"
   sodipodi:docname="LMinformatica_logo_h.svg"
   xmlns:inkscape="http://www.inkscape.org/namespaces/inkscape"
   xmlns:sodipodi="http://sodipodi.sourceforge.net/DTD/sodipodi-0.dtd"
   xmlns:xlink="http://www.w3.org/1999/xlink"
   xmlns="http://www.w3.org/2000/svg"
   xmlns:svg="http://www.w3.org/2000/svg"><sodipodi:namedview
     id="namedview7"
     pagecolor="#ffffff"
     bordercolor="#000000"
     borderopacity="0.25"
     inkscape:showpageshadow="2"
     inkscape:pageopacity="0.0"
     inkscape:pagecheckerboard="0"
     inkscape:deskcolor="#d1d1d1"
     inkscape:document-units="mm"
     showgrid="false"
     showguides="true"
     inkscape:zoom="1.0444209"
     inkscape:cx="194.84482"
     inkscape:cy="28.245318"
     inkscape:window-width="1920"
     inkscape:window-height="1010"
     inkscape:window-x="-6"
     inkscape:window-y="-6"
     inkscape:window-maximized="1"
     inkscape:current-layer="layer1" /><defs
     id="defs2"><rect
       x="-9.5746839"
       y="-102.44912"
       width="765.97471"
       height="357.13571"
       id="rect991" /><linearGradient
       inkscape:collect="always"
       id="linearGradient7871"><stop
         style="stop-color:#5c009f;stop-opacity:1;"
         offset="0"
         id="stop7867" /><stop
         style="stop-color:#9002a6;stop-opacity:1;"
         offset="0.5"
         id="stop7875" /><stop
         style="stop-color:#050082;stop-opacity:1;"
         offset="1"
         id="stop7869" /></linearGradient><linearGradient
       inkscape:collect="always"
       id="linearGradient1129"><stop
         style="stop-color:#000080;stop-opacity:1;"
         offset="0"
         id="stop1125" /><stop
         style="stop-color:#a200b7;stop-opacity:1;"
         offset="0.56581533"
         id="stop1220" /><stop
         style="stop-color:#310f4b;stop-opacity:1;"
         offset="1"
         id="stop1127" /></linearGradient><linearGradient
       inkscape:collect="always"
       xlink:href="#linearGradient1129"
       id="linearGradient1131"
       x1="50.873337"
       y1="59.113392"
       x2="224.27261"
       y2="58.755135"
       gradientUnits="userSpaceOnUse" /><linearGradient
       inkscape:collect="always"
       xlink:href="#linearGradient7871"
       id="linearGradient7873"
       x1="195.06424"
       y1="55.479309"
       x2="96.518799"
       y2="54.972649"
       gradientUnits="userSpaceOnUse" /><linearGradient
       inkscape:collect="always"
       xlink:href="#linearGradient1129"
       id="linearGradient631"
       gradientUnits="userSpaceOnUse"
       x1="50.873337"
       y1="59.113392"
       x2="224.27261"
       y2="58.755135" /><linearGradient
       inkscape:collect="always"
       xlink:href="#linearGradient1129"
       id="linearGradient633"
       gradientUnits="userSpaceOnUse"
       x1="50.873337"
       y1="59.113392"
       x2="224.27261"
       y2="58.755135" /><linearGradient
       inkscape:collect="always"
       xlink:href="#linearGradient7871"
       id="linearGradient635"
       gradientUnits="userSpaceOnUse"
       x1="195.06424"
       y1="55.479309"
       x2="96.518799"
       y2="54.972649" /><linearGradient
       inkscape:collect="always"
       xlink:href="#linearGradient7871"
       id="linearGradient637"
       gradientUnits="userSpaceOnUse"
       x1="195.06424"
       y1="55.479309"
       x2="96.518799"
       y2="54.972649" /></defs><g
     inkscape:label="Camada 1"
     inkscape:groupmode="layer"
     id="layer1"
     transform="translate(-12.870097,-40.536032)"><g
       id="g1063"
       transform="translate(-34.034982,3.9408926)"
       style="fill:url(#linearGradient1131);fill-opacity:1"
       inkscape:label="Nome"
       inkscape:export-filename="Logo1.png"
       inkscape:export-xdpi="96"
       inkscape:export-ydpi="96"><g
         aria-label="LM"
         id="text341"
         style="font-size:50.8px;font-family:'I Am A Designer';-inkscape-font-specification:'I Am A Designer, Normal';fill:url(#linearGradient631);stroke-width:0.799999;stroke-linecap:round;stroke-linejoin:bevel"><path
           d="m 46.905079,39.075608 h 9.921875 V 63.880295 H 81.631641 V 73.80217 H 46.905079 Z"
           style="stroke-width:0.8"
           id="path828" /><path
           d="M 96.514454,61.399826 V 73.80217 H 86.592579 V 36.595139 L 103.95586,53.95842 121.31914,36.595139 V 73.80217 h -9.92187 V 61.399826 l -7.44141,7.441406 z"
           style="stroke-width:0.8"
           id="path830" /></g><g
         aria-label="informatica"
         id="text395"
         style="font-size:16.5475px;font-family:'FLASTY Trial';-inkscape-font-specification:'FLASTY Trial, Normal';fill:url(#linearGradient633);stroke-width:0.26059;stroke-linecap:round;stroke-linejoin:bevel"><path
           d="m 125.63272,63.939859 h 3.64045 v -2.548315 h -3.64045 z m 0,9.862311 h 3.64045 v -9.101126 h -3.64045 z"
           id="path833" /><path
           d="m 130.59696,73.80217 h 3.64045 v -6.28805 h 3.54116 v 6.28805 h 2.81308 v -9.101126 h -9.99469 z"
           id="path835" /><path
           d="m 143.02413,61.391544 v 4.186518 h -1.27416 v 2.813075 h 1.27416 v 5.411033 h 3.64045 v -5.411033 h 2.69724 v -2.813075 h -2.69724 v -1.373443 h 4.03759 v -2.813075 z"
           id="path837" /><path
           d="m 151.69501,73.80217 h 10.37529 v -9.101126 h -10.37529 z m 3.64045,-3.64045 v -2.6476 h 3.92176 v 2.6476 z"
           id="path839" /><path
           d="m 163.39411,73.80217 h 3.64045 v -6.28805 h 3.69009 v -2.813076 h -7.33054 z"
           id="path841" /><path
           d="m 171.88298,73.80217 h 3.64045 v -5.460675 h 2.71379 v 5.460675 h 2.81308 v -5.460675 h 2.71379 v 5.460675 h 2.81308 v -9.101126 h -14.69419 z"
           id="path843" /><path
           d="m 197.06829,64.701044 h -9.16732 v 2.813076 h 5.52687 v 0.72809 h -5.52687 v 5.55996 h 4.81532 l 0.71155,-0.347498 v 0.347498 h 3.64045 z M 190.35,70.658145 v -0.79428 h 3.07784 v 0.79428 z"
           id="path845" /><path
           d="m 199.33531,73.80217 h 7.67804 v -3.64045 h -4.03759 v -2.6476 h 2.69724 v -2.813076 h -2.69724 v -3.3095 h -3.64045 v 3.3095 h -1.27416 v 2.813076 h 1.27416 z"
           id="path847" /><path
           d="m 208.00618,63.939859 h 3.64045 v -2.548315 h -3.64045 z m 0,9.862311 h 3.64045 v -9.101126 h -3.64045 z"
           id="path849" /><path
           d="m 212.97043,73.80217 h 9.16731 v -3.64045 h -5.52686 v -2.6476 h 5.52686 v -2.813076 h -9.16731 z"
           id="path851" /><path
           d="m 232.46339,64.701044 h -9.16731 v 2.813076 h 5.52686 v 0.72809 h -5.52686 v 5.55996 h 4.81532 l 0.71154,-0.347498 v 0.347498 h 3.64045 z m -6.71828,5.957101 v -0.79428 h 3.07783 v 0.79428 z"
           id="path853" /></g></g><g
       transform="matrix(0.28222572,0,0,0.28222572,106.83403,-55.219241)"
       id="g2375"
       inkscape:label="Note"><path
         id="rect2311"
         style="fill:#808080"
         d="m 103.62,362.35999 h 62.346 c 1.108,0 2,0.892 2,2 v 38.721 c 0,1.108 -0.892,2 -2,2 H 103.62 c -1.108,0 -2,-0.892 -2,-2 v -38.721 c 0,-1.108 0.892,-2 2,-2 z" /><path
         id="rect2313"
         style="fill:#ffffff"
         d="m 107.18,366.23999 h 55.226 c 1.108,0 2,0.892 2,2 v 30.63 c 0,1.108 -0.892,2 -2,2 H 107.18 c -1.108,0 -2,-0.892 -2,-2 v -30.63 c 0,-1.108 0.892,-2 2,-2 z" /><path
         d="m 103.3,405.73 h 63.965 c 1.108,0 1.7805,1.0456 2.3433,2 l 5.6567,9.5929 c 0.5628,0.95442 -0.892,2 -2,2 H 97.3 c -1.108,0 -2.5876,-1.0606 -2,-2 l 6,-9.5929 c 0.58755,-0.93939 0.892,-2 2,-2 z"
         fill="#cccccc"
         id="path2315"
         style="fill:#808080;fill-opacity:1" /><g
         fill="#ffffff"
         fill-rule="evenodd"
         stroke="#cccccc"
         stroke-width="1px"
         id="g2373"><path
           d="m 101.51,415.59 1.5069,-2.7826 h 5.1817 l -1.2729,2.7826 z"
           id="path2317" /><path
           d="m 103.02,412.8 1.5735,-2.9057 h 4.9374 l -1.3292,2.9057 z"
           id="path2319" /><path
           d="m 104.59,409.9 1.2033,-2.2219 h 4.7506 l -1.0164,2.2219 z"
           id="path2321" /><path
           d="m 110.54,407.68 h 4.9599 l -0.82143,2.2219 h -5.1549 z"
           id="path2323" /><path
           d="m 109.53,409.9 -1.3292,2.9057 h 5.41 L 114.685,409.9 Z"
           id="path2325" /><path
           d="m 108.2,412.8 -1.2729,2.7826 h 5.6542 L 113.61,412.8 Z"
           id="path2327" /><path
           d="m 112.58,415.59 h 5.7148 l 0.78182,-2.7826 h -5.468 z"
           id="path2329" /><path
           d="m 113.61,412.8 1.0742,-2.9057 h 5.2102 l -0.81641,2.9057 z"
           id="path2331" /><path
           d="m 114.68,409.9 0.82143,-2.2219 h 5.0131 l -0.62431,2.2219 h -5.2102 z"
           id="path2333" /><path
           d="m 120.52,407.68 h 5.2083 l -0.4195,2.2219 h -5.4132 z"
           id="path2335" /><path
           d="m 119.89,409.9 -0.81641,2.9057 h 5.681 l 0.54858,-2.9057 z"
           id="path2337" /><path
           d="m 118.29,415.59 0.78182,-2.7826 h 30.852 l 0.61106,2.7826 z"
           id="path2339" /><path
           d="m 124.76,412.8 0.54858,-2.9057 h 5.5372 l -0.27462,2.9057 z"
           id="path2341" /><path
           d="m 125.31,409.9 0.4195,-2.2219 h 5.3277 l -0.21,2.2219 z"
           id="path2343" /><path
           d="m 130.57,412.8 h 5.8253 v -2.9057 h -5.5506 l -0.27462,2.9057 z"
           id="path2345" /><path
           d="m 130.84,409.9 0.21,-2.2219 h 5.3406 V 409.9 Z"
           id="path2347" /><path
           d="m 136.39,407.68 h 6.2787 l 0.24689,2.2219 h -6.5256 z"
           id="path2349" /><path
           d="m 136.39,409.9 v 2.9057 h 6.8484 L 142.91554,409.9 Z"
           id="path2351" /><path
           d="m 142.67,407.68 h 6.1301 l 0.48793,2.2219 h -6.3711 z"
           id="path2353" /><path
           d="m 142.92,409.9 0.32286,2.9057 h 6.6864 L 149.29118,409.9 Z"
           id="path2355" /><path
           d="m 149.93,412.8 0.61106,2.7826 h 6.5614 L 156.20798,412.8 Z"
           id="path2357" /><path
           d="m 149.93,412.8 -0.63808,-2.9057 h 5.9821 l 0.93405,2.9057 z"
           id="path2359" /><path
           d="m 149.29,409.9 -0.48793,-2.2219 h 5.7557 l 0.71426,2.2219 z"
           id="path2361" /><path
           d="m 154.56,407.68 h 5.6459 l 0.93626,2.2219 h -5.8679 z"
           id="path2363" /><path
           d="m 155.27,409.9 0.93405,2.9057 h 6.1582 l -1.2244,-2.9057 z"
           id="path2365" /><path
           d="m 156.21,412.8 0.89448,2.7826 h 6.4362 l -1.1725,-2.7826 z"
           id="path2367" /><path
           d="m 163.54,415.59 h 6.0271 l -2.9291,-5.6882 h -5.4949 z"
           id="path2369" /><path
           d="m 161.14,409.9 -0.93626,-2.2219 h 5.287 l 1.1442,2.2219 z"
           id="path2371" /></g></g><g
       id="g5454"
       style="fill:url(#linearGradient7873);fill-opacity:1"><path
         id="rect2831"
         style="fill:url(#linearGradient635);stroke-width:0.776367;stroke-linecap:round;stroke-linejoin:bevel"
         d="m 91.597733,51.91964 h 39.604977 v 6.333253 H 91.597733 Z" /><path
         id="rect2835"
         style="fill:url(#linearGradient637);stroke-width:0.776367;stroke-linecap:round;stroke-linejoin:bevel"
         d="m 158.82344,51.91964 h 39.60497 v 6.333253 h -39.60497 z" /></g><text
       xml:space="preserve"
       transform="matrix(0.26458333,0,0,0.26458333,12.870097,40.536032)"
       id="text989"
       style="fill:#000080;stroke-width:3.02362205;stroke-linecap:round;stroke-linejoin:bevel;-inkscape-font-specification:'Bradley Hand ITC, Normal';font-family:'Bradley Hand ITC';font-size:192px;white-space:pre;shape-inside:url(#rect991)" /></g></svg>
